<?xml version="1.0" encoding="UTF-8" standalone="no"?>
<!-- Created with Inkscape (http://www.inkscape.org/) -->

<svg
   xmlns:dc="http://purl.org/dc/elements/1.1/"
   xmlns:cc="http://creativecommons.org/ns#"
   xmlns:rdf="http://www.w3.org/1999/02/22-rdf-syntax-ns#"
   xmlns:svg="http://www.w3.org/2000/svg"
   xmlns="http://www.w3.org/2000/svg"
   xmlns:sodipodi="http://sodipodi.sourceforge.net/DTD/sodipodi-0.dtd"
   xmlns:inkscape="http://www.inkscape.org/namespaces/inkscape"
   width="210mm"
   height="297mm"
   viewBox="0 0 210 297"
   version="1.1"
   id="svg8"
   inkscape:version="0.92.4 (f8dce91, 2019-08-02)"
   sodipodi:docname="car-logo.svg">
  <defs
     id="defs2" />
  <sodipodi:namedview
     id="base"
     pagecolor="#ffffff"
     bordercolor="#666666"
     borderopacity="0"
     inkscape:pageopacity="0"
     inkscape:pageshadow="2"
     inkscape:zoom="1.1014087"
     inkscape:cx="-416.29321"
     inkscape:cy="977.41096"
     inkscape:document-units="mm"
     inkscape:current-layer="g41"
     showgrid="false"
     inkscape:lockguides="false"
     inkscape:pagecheckerboard="true"
     inkscape:window-width="1920"
     inkscape:window-height="1080"
     inkscape:window-x="1920"
     inkscape:window-y="27"
     inkscape:window-maximized="1" />
  <metadata
     id="metadata5">
    <rdf:RDF>
      <cc:Work
         rdf:about="">
        <dc:format>image/svg+xml</dc:format>
        <dc:type
           rdf:resource="http://purl.org/dc/dcmitype/StillImage" />
        <dc:title></dc:title>
      </cc:Work>
    </rdf:RDF>
  </metadata>
  <g
     inkscape:label="Layer 1"
     inkscape:groupmode="layer"
     id="layer1">
    <flowRoot
       xml:space="preserve"
       id="flowRoot21"
       style="fill:black;fill-opacity:1;stroke:none;font-family:sans-serif;font-style:normal;font-weight:normal;font-size:40px;line-height:1.25;letter-spacing:0px;word-spacing:0px"><flowRegion
         id="flowRegion23"><rect
           id="rect25"
           width="2.0742664"
           height="114.68879"
           x="-909.07507"
           y="106.45984" /></flowRegion><flowPara
         id="flowPara27"></flowPara></flowRoot>    <g
       id="g41"
       transform="translate(88.161718,1.9217813)">
      <g
         transform="translate(-192.95685,-45.924107)"
         id="g4622">
        <g
           id="g4601"
           transform="translate(-60.47619,-3.0238095)">
          <path
             sodipodi:nodetypes="ccccccsccsscsccccsccccccscsccccccscccsscccccsccccscccccscssscsscscsscccsssccsssssscsccsccscsccccsccsscscsccss"
             inkscape:connector-curvature="0"
             id="path4582"
             d="m 21.226855,85.52257 c -1.23737,-0.585336 -2.255082,-1.677019 -2.600071,-2.789054 -0.150302,-0.48448 -0.27394,-1.916102 -0.274751,-3.181381 l -0.0015,-2.300509 -2.447396,-0.0681 -2.447396,-0.06811 v -8.171708 c 0,-8.077703 0.0072,-8.185916 0.62377,-9.406646 0.718306,-1.4221 2.688063,-3.183361 4.055137,-3.625905 0.844333,-0.273326 1.032846,-0.5095 1.868074,-2.340373 3.165364,-6.938678 5.138803,-10.845181 5.839589,-11.559705 0.435872,-0.444417 1.250614,-1.017257 1.810536,-1.272979 0.984357,-0.449564 1.56879,-0.462817 17.663378,-0.400552 l 16.645332,0.0644 1.13441,0.713862 c 0.62392,0.392624 1.36249,1.063478 1.64126,1.490787 0.27877,0.427308 1.78779,3.508358 3.35338,6.846778 2.80009,5.970849 2.86338,6.076956 3.88013,6.505348 1.60744,0.677271 2.81493,1.687419 3.67099,3.071037 l 0.71804,1.268521 0.13768,5.775974 -0.0709,11.041165 -2.4474,0.06811 -2.44739,0.0681 v 2.640232 c 0,3.166399 -0.47943,4.335001 -2.19555,5.351682 -0.91288,0.540817 -1.35541,0.635737 -2.96389,0.635737 -2.15362,0 -3.25716,-0.496157 -4.38943,-1.973509 -0.57341,-0.748185 -0.64642,-1.125856 -0.72532,-3.751923 l -0.0877,-2.919995 H 45.051895 28.93389 l -0.0015,2.190965 c -0.0017,2.531122 -0.316416,3.773598 -1.23046,4.857839 -1.385958,1.644023 -4.400536,2.221283 -6.4751,1.239916 z m 4.546132,-0.59726 c 0.413764,-0.191547 1.085875,-0.739395 1.49358,-1.217437 0.703739,-0.825149 0.747982,-1.026097 0.873573,-3.967673 l 0.132292,-3.098503 h 16.668753 16.668752 l 0.15629,2.842333 c 0.17443,3.17239 0.35775,3.739793 1.55435,4.811019 2.01727,1.805902 5.38048,1.391362 6.94113,-0.855535 0.52499,-0.755841 0.62683,-1.283257 0.74094,-3.837053 l 0.13229,-2.960764 2.4474,-0.06811 2.44739,-0.0681 -0.0668,-5.820833 c -0.093,-8.105765 -0.0607,-10.399506 -1.59361,-12.192099 -0.49102,-0.57419 -1.53022,-1.329483 -2.44842,-1.779524 l -1.59531,-0.781911 -2.86982,-6.152224 c -1.57841,-3.383722 -3.08829,-6.473817 -3.3553,-6.866878 -0.26702,-0.393061 -0.98733,-1.012038 -1.60071,-1.375504 l -1.11524,-0.660848 -15.894572,-0.06753 c -17.759926,-0.07546 -17.302676,-0.113059 -18.991702,1.561754 -0.623042,0.617799 -1.768981,2.767558 -3.905042,7.325778 -2.9598,6.316035 -3.042494,6.457081 -3.941395,6.722661 -1.177453,0.347881 -3.093378,1.928308 -3.829259,3.158721 -0.550057,0.91971 -0.576185,1.278323 -0.652233,8.952154 l -0.07922,7.994062 h 2.366018 c 1.913424,0 2.39674,0.07167 2.526618,0.374665 0.08833,0.206064 0.160599,1.478177 0.160599,2.826914 0,2.612149 0.219782,3.449247 1.142104,4.350008 1.405727,1.372866 3.617527,1.715708 5.486576,0.850457 z M 21.79014,68.927512 c -1.76106,-0.65981 -3.178311,-2.634412 -3.169189,-4.415511 0.01769,-3.45374 3.823467,-5.755102 7.341264,-4.439277 2.220561,0.830596 3.346441,2.503935 3.187571,4.737526 -0.188836,2.654879 -1.961536,4.195912 -4.949456,4.302629 -0.961802,0.03435 -2.046388,-0.04906 -2.41019,-0.185367 z m 4.640908,-0.971072 c 1.870784,-1.14757 2.606264,-3.05583 1.855796,-4.815007 -0.837645,-1.963531 -2.779061,-2.947564 -5.233785,-2.652814 -2.527487,0.303488 -4.289545,2.72526 -3.619626,4.974813 0.337815,1.134366 1.895499,2.69962 2.983294,2.99779 1.182125,0.324026 3.045075,0.08977 4.014321,-0.504782 z m 37.030969,0.864702 c -3.68801,-1.777794 -4.08402,-6.142308 -0.74819,-8.245926 2.29733,-1.448728 5.50049,-0.971095 7.33553,1.093824 0.65564,0.73778 0.81635,1.166717 0.90521,2.416026 0.13843,1.946108 -0.5866,3.416632 -2.13755,4.335461 -1.34583,0.79731 -4.104,1.003654 -5.355,0.400615 z m 4.29955,-0.61671 c 1.32115,-0.572543 2.39231,-1.852891 2.62525,-3.13791 0.33719,-1.86012 -1.46754,-4.208151 -3.49632,-4.548873 -3.17181,-0.532691 -5.67744,1.24696 -5.67744,4.032475 0,1.739174 1.00012,3.037062 2.91231,3.779411 1.28017,0.496984 2.28012,0.46258 3.6362,-0.125103 z M 24.046972,55.690893 c -0.19771,-0.286384 4.69228,-10.795607 5.305501,-11.402212 0.439904,-0.435157 1.035338,-0.452248 15.755912,-0.452248 h 15.298732 l 0.40402,0.55201 c 0.57405,0.784324 5.16443,10.695022 5.16443,11.150096 0,0.342648 -1.94385,0.377811 -20.886472,0.377811 -12.934582,0 -20.945733,-0.08584 -21.042123,-0.225457 z M 65.100317,54.90969 c -3.48956,-7.480926 -4.77622,-10.062695 -5.13486,-10.303459 -0.34039,-0.22851 -3.7712,-0.296076 -15.033832,-0.296076 -13.602666,0 -14.621445,0.02833 -15.014928,0.41757 -0.382033,0.37791 -4.948123,9.878396 -4.950539,10.300395 -5.56e-4,0.09771 9.060478,0.177646 20.135627,0.177646 16.006582,0 20.108312,-0.06073 19.998532,-0.296076 z"
             style="stroke-width:0.25033876" />
        </g>
        <path
           style="fill:#ff0000;fill-opacity:1;stroke:#000000;stroke-width:0.35714287;stroke-opacity:0"
           d="m -142.18368,310.97097 c -4.58729,-0.76789 -9.43288,-3.81884 -11.6619,-7.34271 -1.55607,-2.46 -1.91772,-4.85127 -2.24822,-14.86543 -0.24554,-7.43993 -0.41967,-9.52797 -0.82869,-9.93699 -0.91846,-0.91846 -3.1485,-1.16235 -10.70762,-1.17104 l -7.41072,-0.009 0.02,-12.05357 c 0.031,-18.68033 0.60915,-44.66 1.05094,-47.22138 0.49612,-2.8764 1.6886,-5.10061 4.25624,-7.93876 3.71136,-4.10237 6.62896,-6.11431 13.5204,-9.3235 1.6364,-0.76204 3.49626,-4.17718 11.48461,-21.0885 6.08962,-12.89168 11.46243,-23.63093 13.6106,-27.20503 2.23029,-3.71074 5.5841,-6.95277 8.20557,-7.93209 4.49766,-1.68023 5.34199,-1.70146 67.673093,-1.70146 H 3.3520314 l 3.117475,1.89443 c 5.2299396,3.17813 6.6664286,4.744 9.5060716,10.36231 2.858925,5.65646 9.026628,18.64712 16.079457,33.8672 l 4.940561,10.66178 4.261582,2.14285 c 10.163789,5.11068 13.892082,9.35933 15.502336,17.66603 0.975153,5.03047 1.343775,13.4436 1.629671,37.19456 l 0.247668,20.57487 -9.249554,0.31799 -9.249553,0.31798 -0.434136,9.28572 c -0.484029,10.35292 -0.984368,13.37265 -2.644332,15.95948 -4.623182,7.2046 -14.509007,9.8235 -22.604779,5.98833 -2.301114,-1.0901 -6.1231212,-4.69297 -7.1574891,-6.74711 -1.3962928,-2.77289 -1.9021392,-6.60212 -2.6213678,-19.84356 l -0.2521822,-4.64286 -63.0915969,-0.0903 -63.091593,-0.0903 -0.2026,3.30456 c -0.11143,1.81751 -0.36449,6.59999 -0.56237,10.62773 -0.46792,9.52444 -0.70812,10.3375 -4.05684,13.73174 -1.45802,1.47785 -3.39456,3.01908 -4.4839,3.5686 -3.11668,1.57223 -7.76447,2.29831 -11.11824,1.7369 z M 27.100871,249.07168 c 3.429671,-0.97669 5.498939,-2.11447 7.658614,-4.21109 4.021618,-3.90418 5.591971,-8.82961 4.862346,-15.2508 -0.495978,-4.36493 -1.394967,-6.14595 -4.645917,-9.20421 -4.522411,-4.25436 -9.212004,-6.08696 -15.552454,-6.0776 -2.931939,0.004 -4.080582,0.17809 -6.414954,0.97038 -13.83804607,4.69667 -17.7345568,19.76528 -7.5919603,29.35969 2.9399214,2.78102 5.6096783,4.36448 8.4712003,5.02434 2.889575,0.66634 9.860068,0.34416 13.213125,-0.61071 z m -158.425991,0.0119 c 8.55145,-2.1871 13.08097,-8.18091 13.06577,-17.28967 -0.0109,-6.51343 -3.32393,-11.88517 -9.25132,-14.99992 -10.85961,-5.70657 -23.95456,-2.00807 -29.00957,8.19337 -1.29647,2.61638 -1.48478,3.32068 -1.64658,6.15852 -0.14844,2.6034 -0.0422,3.66681 0.56645,5.67072 1.64856,5.42753 6.79735,10.95547 11.60389,12.45839 2.47776,0.77474 11.34611,0.65904 14.67136,-0.19141 z M 17.747839,199.48889 c 1.43555,-0.17205 2.780157,-0.48288 2.988014,-0.69073 0.2658,-0.2658 -0.364725,-2.10857 -2.125279,-6.21134 C 12.893385,179.26359 2.9099421,158.35233 0.98996351,155.6788 L -0.19804364,154.02454 -56.63729,154.1846 c -38.448147,0.10904 -57.0654,0.2834 -58.40354,0.547 -1.51672,0.29877 -2.19216,0.65456 -2.96441,1.56152 -2.09539,2.46089 -16.74334,33.38255 -19.21009,40.55229 -0.45984,1.33653 -0.57139,2.1264 -0.33387,2.36392 0.22262,0.22262 7.709,0.44986 19.91469,0.60448 25.916663,0.32832 132.057349,0.0736 135.382349,-0.3249 z"
           id="path4611"
           inkscape:connector-curvature="0"
           transform="scale(0.26458333)" />
        <path
           style="fill:#ffffff;fill-opacity:1;stroke:#000000;stroke-width:0.35714287;stroke-opacity:0"
           d="m -143.79831,247.1485 c -4.22559,-1.32409 -9.85942,-7.02488 -11.10678,-11.23878 -2.2275,-7.52507 3.06032,-15.88423 11.47141,-18.13439 2.40352,-0.643 7.76143,-0.61157 10.3423,0.0607 4.8954,1.27509 8.90656,4.55402 11.01432,9.00367 1.02353,2.16075 1.14338,2.75146 1.14338,5.63555 0,2.91676 -0.11051,3.44627 -1.16716,5.59262 -2.20913,4.4874 -6.76761,7.99321 -11.7722,9.0537 -2.94628,0.62434 -7.9753,0.638 -9.92527,0.027 z"
           id="path4613"
           inkscape:connector-curvature="0"
           transform="scale(0.26458333)" />
        <path
           style="fill:#ffffff;fill-opacity:1;stroke:#000000;stroke-width:0.35714287;stroke-opacity:0"
           d="m 16.523046,247.49884 c -5.131779,-1.24533 -10.4073368,-5.05801 -12.2224142,-8.83323 -2.5702165,-5.34585 -1.3539347,-12.26773 2.9037789,-16.52544 3.3752603,-3.37526 7.3274873,-4.87581 12.8454183,-4.87705 1.915931,-4.3e-4 4.163239,0.18225 4.994018,0.40596 7.049089,1.89812 13.049584,9.74766 12.298617,16.08842 -0.538183,4.54411 -4.529611,9.78223 -9.169004,12.03288 -4.339575,2.10521 -7.87751,2.62402 -11.650414,1.70846 z"
           id="path4615"
           inkscape:connector-curvature="0"
           transform="scale(0.26458333)" />
      </g>
      <g
         id="g102">
        <text
           transform="scale(0.79174097,1.2630393)"
           id="text96"
           y="44.355656"
           x="-318.60324"
           style="font-style:normal;font-variant:normal;font-weight:bold;font-stretch:normal;font-size:16.60509491px;line-height:1.25;font-family:sans-serif;-inkscape-font-specification:'sans-serif, Bold';font-variant-ligatures:normal;font-variant-caps:normal;font-variant-numeric:normal;font-feature-settings:normal;text-align:start;letter-spacing:0px;word-spacing:0px;writing-mode:lr-tb;text-anchor:start;fill:#000000;fill-opacity:1;stroke:none;stroke-width:0.41512713"
           xml:space="preserve"><tspan
             style="font-style:normal;font-variant:normal;font-weight:bold;font-stretch:normal;font-size:16.60509491px;font-family:sans-serif;-inkscape-font-specification:'sans-serif, Bold';font-variant-ligatures:normal;font-variant-caps:normal;font-variant-numeric:normal;font-feature-settings:normal;text-align:start;writing-mode:lr-tb;text-anchor:start;stroke-width:0.41512713"
             y="44.355656"
             x="-318.60324"
             id="tspan94"
             sodipodi:role="line">Red Toy Car</tspan></text>
        <text
           xml:space="preserve"
           style="font-style:normal;font-variant:normal;font-weight:bold;font-stretch:normal;font-size:15.80265331px;line-height:1.25;font-family:sans-serif;-inkscape-font-specification:'sans-serif, Bold';font-variant-ligatures:normal;font-variant-caps:normal;font-variant-numeric:normal;font-feature-settings:normal;text-align:start;letter-spacing:0px;word-spacing:0px;writing-mode:lr-tb;text-anchor:start;fill:#ff0000;fill-opacity:1;stroke:none;stroke-width:0.3950707"
           x="-303.45697"
           y="46.317421"
           id="text31"
           transform="scale(0.83320356,1.2001869)"><tspan
             sodipodi:role="line"
             id="tspan29"
             x="-303.45697"
             y="46.317421"
             style="font-style:normal;font-variant:normal;font-weight:bold;font-stretch:normal;font-size:15.80265331px;font-family:sans-serif;-inkscape-font-specification:'sans-serif, Bold';font-variant-ligatures:normal;font-variant-caps:normal;font-variant-numeric:normal;font-feature-settings:normal;text-align:start;writing-mode:lr-tb;text-anchor:start;fill:#ff0000;stroke-width:0.3950707">Red Toy Car</tspan></text>
      </g>
    </g>
  </g>
</svg>
